<svg xmlns="http://www.w3.org/2000/svg" width="160.665" height="44.593" viewBox="0 0 160.665 44.593"><defs><style>.a{fill:#de0000;}.b,.c{fill:#fff;}.b{fill-rule:evenodd;}</style></defs><g transform="translate(-19.237 -46.886)"><circle class="a" cx="22.297" cy="22.297" r="22.297" transform="translate(19.237 46.886)"/><g transform="translate(71.394 55.792)"><path class="b" d="M207.067,82.41h-2.741v1.062h1.306v1.206a1.588,1.588,0,0,1-1.153.346,1.424,1.424,0,0,1-1.22-.562,2.773,2.773,0,0,1-.416-1.663v-.447a2.912,2.912,0,0,1,.387-1.643,1.271,1.271,0,0,1,1.115-.553,1.348,1.348,0,0,1,.9.279,1.4,1.4,0,0,1,.424.879h1.4a2.541,2.541,0,0,0-.828-1.727,3.327,3.327,0,0,0-3.49-.187,2.607,2.607,0,0,0-1.014,1.172,4.314,4.314,0,0,0-.352,1.813v.476a4.064,4.064,0,0,0,.38,1.773,2.638,2.638,0,0,0,1.053,1.151,3.1,3.1,0,0,0,1.586.4,4.573,4.573,0,0,0,1.569-.257,2.492,2.492,0,0,0,1.1-.723V82.41Z" transform="translate(-201.383 -78.706)"/><path class="b" d="M227.652,87.849a2.739,2.739,0,0,0-.61-1.907,2.143,2.143,0,0,0-1.672-.673,2.386,2.386,0,0,0-1.26.334,2.218,2.218,0,0,0-.854.951,3.149,3.149,0,0,0-.3,1.4v.135a2.5,2.5,0,0,0,.715,1.869,2.536,2.536,0,0,0,1.854.7,2.753,2.753,0,0,0,1.177-.248,2.076,2.076,0,0,0,.842-.689l-.679-.764a1.49,1.49,0,0,1-1.249.581,1.218,1.218,0,0,1-.854-.308,1.292,1.292,0,0,1-.4-.817h3.3Zm-1.359-.379H224.37a1.455,1.455,0,0,1,.328-.8.863.863,0,0,1,.667-.28.889.889,0,0,1,.679.253,1.036,1.036,0,0,1,.249.717Z" transform="translate(-216.777 -83.184)"/><path class="b" d="M261.382,85.367h1.588l-2.033-3.032,1.871-2.167h-1.66l-1.325,1.561-.268.346V77.987h-1.383v7.38h1.383V83.782l.5-.5Z" transform="translate(-241.91 -77.987)"/><path class="b" d="M274.765,85.605h-1.488l1.813,5.213-.163.428a.789.789,0,0,1-.3.4,1.132,1.132,0,0,1-.586.12l-.21,0v1.052a2.173,2.173,0,0,0,.612.091,1.578,1.578,0,0,0,1.531-1.019l.115-.274,2.081-6.006h-1.483l-.957,3.233Z" transform="translate(-252.691 -83.424)"/><path class="b" d="M293.074,79.33h-1.33l-2.593,7h1.526l.479-1.441h2.516l.483,1.441h1.527Zm-1.531,4.386.866-2.618.876,2.618Z" transform="translate(-264.019 -78.946)"/><path class="b" d="M311.641,85.366v5.2h1.383V86.9a.95.95,0,0,1,.875-.5.853.853,0,0,1,.636.2.905.905,0,0,1,.192.641v3.325h1.382V87.206a2.27,2.27,0,0,0-.411-1.451,1.5,1.5,0,0,0-1.225-.485,1.805,1.805,0,0,0-1.488.7l-.043-.6Z" transform="translate(-280.069 -83.185)"/><path class="b" d="M328.6,81.142V82.42h-.756v1.019h.756v2.8a1.323,1.323,0,0,0,1.483,1.475,2.831,2.831,0,0,0,.837-.125V86.537a2.2,2.2,0,0,1-.407.033.55.55,0,0,1-.421-.125.623.623,0,0,1-.111-.413V83.438h.885V82.42h-.885V81.142Z" transform="translate(-291.636 -80.239)"/><path class="b" d="M341.673,89.523a1,1,0,0,1-.6.151,1.079,1.079,0,0,1-.68-.2.726.726,0,0,1-.273-.567H338.81a1.487,1.487,0,0,0,.287.877,1.94,1.94,0,0,0,.792.639,2.729,2.729,0,0,0,1.155.233,2.613,2.613,0,0,0,1.569-.44,1.358,1.358,0,0,0,.608-1.151,1.436,1.436,0,0,0-1.1-1.4,6.026,6.026,0,0,0-.871-.233,2.231,2.231,0,0,1-.734-.245.427.427,0,0,1-.218-.372.5.5,0,0,1,.192-.4.824.824,0,0,1,.541-.159.808.808,0,0,1,.6.195.674.674,0,0,1,.192.492h1.383a1.471,1.471,0,0,0-.591-1.211,2.475,2.475,0,0,0-1.577-.466,2.3,2.3,0,0,0-1.495.464,1.429,1.429,0,0,0-.572,1.155q0,1.187,1.847,1.576a2.845,2.845,0,0,1,.806.262.447.447,0,0,1,.251.4.471.471,0,0,1-.2.4Z" transform="translate(-299.458 -83.184)"/><path class="b" d="M241.342,90.389a2.087,2.087,0,0,1-.847-.691l.684-.765a1.5,1.5,0,0,0,1.256.582,1.23,1.23,0,0,0,.859-.308,1.289,1.289,0,0,0,.407-.818h-3.316v-.568a2.737,2.737,0,0,1,.614-1.91,2.162,2.162,0,0,1,1.683-.674,2.412,2.412,0,0,1,1.268.335,2.226,2.226,0,0,1,.859.953,3.146,3.146,0,0,1,.3,1.4v.135a2.5,2.5,0,0,1-.72,1.872,2.558,2.558,0,0,1-1.866.7A2.777,2.777,0,0,1,241.342,90.389ZM242,86.612a1.036,1.036,0,0,0-.25.718v.111h1.935a1.455,1.455,0,0,0-.33-.8.87.87,0,0,0-.671-.28A.9.9,0,0,0,242,86.612Z" transform="translate(-229.216 -83.161)"/></g><g transform="translate(70.806 61.541)"><path class="c" d="M208.473,133.754a8.024,8.024,0,0,1-.363-1.03,7.173,7.173,0,0,1-.218-1.11,5.316,5.316,0,0,1-1.565,1.731,3.913,3.913,0,0,1-2.318.687,4.828,4.828,0,0,1-3.462-1.156,4.142,4.142,0,0,1-1.215-3.151,3.769,3.769,0,0,1,1.618-3.257,8.082,8.082,0,0,1,4.723-1.156h2.153v-1.136a2.224,2.224,0,0,0-.541-1.6,2.528,2.528,0,0,0-3.045-.112,1.606,1.606,0,0,0-.509,1.261L200,123.714l-.013-.079a3.629,3.629,0,0,1,1.572-3.124,6.85,6.85,0,0,1,4.372-1.315,6.384,6.384,0,0,1,4.161,1.3,4.506,4.506,0,0,1,1.6,3.706v5.905a11.162,11.162,0,0,0,.152,1.889,9.464,9.464,0,0,0,.482,1.757Zm-3.527-2.576a3.311,3.311,0,0,0,1.81-.5,2.613,2.613,0,0,0,1.07-1.162v-2.022h-2.153a2.573,2.573,0,0,0-1.863.615,1.992,1.992,0,0,0-.634,1.486,1.484,1.484,0,0,0,.476,1.149A1.842,1.842,0,0,0,204.945,131.178Z" transform="translate(-199.331 -113.145)"/><path class="c" d="M257.06,131.06a2.282,2.282,0,0,0,1.651-.6,2.113,2.113,0,0,0,.621-1.6h3.5l.039.079a4.451,4.451,0,0,1-1.632,3.626,6.879,6.879,0,0,1-9.109-.561,7.7,7.7,0,0,1-1.731-5.192v-.4a7.753,7.753,0,0,1,1.724-5.192,6.093,6.093,0,0,1,4.921-2.035,6,6,0,0,1,4.261,1.506,5,5,0,0,1,1.565,3.963l-.027.079h-3.514a2.79,2.79,0,0,0-.608-1.843,2.061,2.061,0,0,0-1.678-.733,2.238,2.238,0,0,0-2.16,1.187,6.527,6.527,0,0,0-.628,3.06v.4a6.5,6.5,0,0,0,.628,3.08A2.258,2.258,0,0,0,257.06,131.06Z" transform="translate(-235.778 -113.145)"/><path class="c" d="M308.126,133.754a7.978,7.978,0,0,1-.363-1.03,7.137,7.137,0,0,1-.218-1.11,5.317,5.317,0,0,1-1.565,1.731,3.913,3.913,0,0,1-2.319.687,4.828,4.828,0,0,1-3.461-1.156,4.141,4.141,0,0,1-1.215-3.151,3.77,3.77,0,0,1,1.618-3.257,8.082,8.082,0,0,1,4.723-1.156h2.153v-1.136a2.226,2.226,0,0,0-.542-1.6,2.529,2.529,0,0,0-3.045-.112,1.607,1.607,0,0,0-.509,1.261l-3.725-.013-.013-.079a3.631,3.631,0,0,1,1.572-3.124,6.851,6.851,0,0,1,4.373-1.315,6.385,6.385,0,0,1,4.161,1.3,4.507,4.507,0,0,1,1.6,3.706v5.905A11.19,11.19,0,0,0,311.5,132a9.463,9.463,0,0,0,.482,1.757Zm-3.528-2.576a3.312,3.312,0,0,0,1.81-.5,2.615,2.615,0,0,0,1.07-1.162v-2.022h-2.153a2.574,2.574,0,0,0-1.863.615,1.993,1.993,0,0,0-.634,1.486,1.485,1.485,0,0,0,.475,1.149A1.842,1.842,0,0,0,304.6,131.178Z" transform="translate(-270.449 -113.145)"/><path class="c" d="M350.287,111.646a9.286,9.286,0,0,1,1.46-5.456,4.741,4.741,0,0,1,4.115-2.074,4,4,0,0,1,1.929.462A4.648,4.648,0,0,1,359.3,105.9V98.065h3.871v20.609h-3.316l-.317-1.744a4.734,4.734,0,0,1-1.592,1.506,4.233,4.233,0,0,1-2.107.515,4.833,4.833,0,0,1-4.089-1.929,8.234,8.234,0,0,1-1.46-5.1Zm3.845.28a5.888,5.888,0,0,0,.634,2.971,2.206,2.206,0,0,0,2.061,1.083,2.984,2.984,0,0,0,1.453-.339,2.7,2.7,0,0,0,1.017-.99v-6.127a2.984,2.984,0,0,0-1.01-1.056,2.677,2.677,0,0,0-1.433-.379,2.175,2.175,0,0,0-2.067,1.262,7.169,7.169,0,0,0-.654,3.3Z" transform="translate(-307.061 -98.065)"/><path class="c" d="M410.871,134.032a6.436,6.436,0,0,1-4.941-1.982,7.086,7.086,0,0,1-1.85-5.033v-.528a7.819,7.819,0,0,1,1.751-5.245,6.526,6.526,0,0,1,9.188-.3,6.711,6.711,0,0,1,1.6,4.716v2.1h-8.534l-.026.079a3.706,3.706,0,0,0,.945,2.316,2.95,2.95,0,0,0,2.279.908,7.428,7.428,0,0,0,2.127-.258,9.77,9.77,0,0,0,1.85-.813l1.044,2.384a7.119,7.119,0,0,1-2.286,1.188A9.913,9.913,0,0,1,410.871,134.032Zm-.343-11.863a2.008,2.008,0,0,0-1.691.819,4.263,4.263,0,0,0-.767,2.153l.04.066h4.729v-.344a3.093,3.093,0,0,0-.574-1.961A2.072,2.072,0,0,0,410.528,122.168Z" transform="translate(-345.452 -113.145)"/><path class="c" d="M459.289,119.46l.158,1.889a4.808,4.808,0,0,1,1.724-1.592,4.959,4.959,0,0,1,2.4-.561,4.37,4.37,0,0,1,2.351.608,3.752,3.752,0,0,1,1.48,1.836,4.952,4.952,0,0,1,1.717-1.8,4.661,4.661,0,0,1,2.484-.647,4.121,4.121,0,0,1,3.336,1.46,6.817,6.817,0,0,1,1.222,4.446v8.653H472.3v-8.686a3.631,3.631,0,0,0-.529-2.264,1.927,1.927,0,0,0-1.572-.635,2.686,2.686,0,0,0-1.42.364,2.65,2.65,0,0,0-.958,1.013q0,.252.013.431c.008.119.013.241.013.364v9.414h-3.844v-8.686a3.641,3.641,0,0,0-.528-2.245,1.916,1.916,0,0,0-1.585-.655,2.986,2.986,0,0,0-1.367.3,2.626,2.626,0,0,0-.971.841v10.447h-3.844V119.46Z" transform="translate(-382.296 -113.145)"/><path class="c" d="M539.09,128.415l.159.793h.079l2.735-9.089h4.148l-5.8,16.434a7.568,7.568,0,0,1-1.651,2.583,4.237,4.237,0,0,1-3.131,1.05,4.854,4.854,0,0,1-.905-.079q-.416-.079-1.011-.225l.449-2.814q.171.026.37.053a2.657,2.657,0,0,0,.357.027,2.1,2.1,0,0,0,1.466-.469,3.091,3.091,0,0,0,.793-1.169l.449-1.11-5.073-14.281h4.148Z" transform="translate(-437.116 -113.803)"/></g><path class="c" d="M144.8,121.979v-5.951h-.779v5.951a.779.779,0,1,0,.779,0Z" transform="translate(-88.773 -49.344)"/><path class="c" d="M74.081,99.723l-14.162-5.35a1.371,1.371,0,0,0-.969,0l-14.162,5.35a.723.723,0,0,0,0,1.352l14.162,5.35a1.372,1.372,0,0,0,.969,0l14.162-5.35A.723.723,0,0,0,74.081,99.723Z" transform="translate(-17.9 -33.827)"/><path class="c" d="M83.849,125.242a8.882,8.882,0,1,0-13.72,7.447l.158.1.09.057q.276.17.566.32-.224.528-.4.952a8.829,8.829,0,0,0-4.042,5.272,22.316,22.316,0,0,0,16.937,0,8.831,8.831,0,0,0-4.562-5.551l-.216-.511a8.993,8.993,0,0,0,5.191-8.086Z" transform="translate(-33.434 -49.581)"/><line class="a" transform="translate(32.976 89.914)"/></g></svg>